<?xml version="1.0" encoding="UTF-8" standalone="no"?>
<!-- Created with Inkscape (http://www.inkscape.org/) -->

<svg
   xmlns:dc="http://purl.org/dc/elements/1.1/"
   xmlns:cc="http://creativecommons.org/ns#"
   xmlns:rdf="http://www.w3.org/1999/02/22-rdf-syntax-ns#"
   xmlns:svg="http://www.w3.org/2000/svg"
   xmlns="http://www.w3.org/2000/svg"
   xmlns:sodipodi="http://sodipodi.sourceforge.net/DTD/sodipodi-0.dtd"
   xmlns:inkscape="http://www.inkscape.org/namespaces/inkscape"
   width="1052.3622"
   height="744.09448"
   id="svg2"
   version="1.1"
   inkscape:version="0.47 r22583"
   sodipodi:docname="drawing-1.pdf">
  <defs
     id="defs4">
    <inkscape:perspective
       sodipodi:type="inkscape:persp3d"
       inkscape:vp_x="0 : 526.18109 : 1"
       inkscape:vp_y="0 : 1000 : 0"
       inkscape:vp_z="744.09448 : 526.18109 : 1"
       inkscape:persp3d-origin="372.04724 : 350.78739 : 1"
       id="perspective10" />
    <inkscape:perspective
       id="perspective2884"
       inkscape:persp3d-origin="0.5 : 0.33333333 : 1"
       inkscape:vp_z="1 : 0.5 : 1"
       inkscape:vp_y="0 : 1000 : 0"
       inkscape:vp_x="0 : 0.5 : 1"
       sodipodi:type="inkscape:persp3d" />
    <inkscape:perspective
       id="perspective2958"
       inkscape:persp3d-origin="0.5 : 0.33333333 : 1"
       inkscape:vp_z="1 : 0.5 : 1"
       inkscape:vp_y="0 : 1000 : 0"
       inkscape:vp_x="0 : 0.5 : 1"
       sodipodi:type="inkscape:persp3d" />
  </defs>
  <sodipodi:namedview
     id="base"
     pagecolor="#ffffff"
     bordercolor="#666666"
     borderopacity="1.0"
     inkscape:pageopacity="0.0"
     inkscape:pageshadow="2"
     inkscape:zoom="0.64642329"
     inkscape:cx="526.18109"
     inkscape:cy="372.04724"
     inkscape:document-units="px"
     inkscape:current-layer="layer1"
     showgrid="false"
     inkscape:window-width="1280"
     inkscape:window-height="749"
     inkscape:window-x="0"
     inkscape:window-y="0"
     inkscape:window-maximized="1" />
  <metadata
     id="metadata7">
    <rdf:RDF>
      <cc:Work
         rdf:about="">
        <dc:format>image/svg+xml</dc:format>
        <dc:type
           rdf:resource="http://purl.org/dc/dcmitype/StillImage" />
        <dc:title></dc:title>
      </cc:Work>
    </rdf:RDF>
  </metadata>
  <g
     inkscape:label="Layer 1"
     inkscape:groupmode="layer"
     id="layer1"
     transform="translate(0,-308.2677)">
    <path
       style="fill:#000000"
       d="m 819.89835,909.2294 c 9.49931,-2.0184 11.97145,-2.8346 31.92913,-10.5419 7.48726,-2.8915 15.69976,-5.7041 18.25,-6.2504 2.55025,-0.5462 4.63681,-1.1006 4.63681,-1.2321 0,-0.5769 -5.96245,-2.0748 -11.12409,-2.7945 -5.3032,-0.7396 -5.94397,-0.6923 -11.23067,0.8291 -3.08363,0.8874 -7.63987,1.805 -10.12499,2.0393 -4.88642,0.4606 -16.44545,-0.6366 -20.52025,-1.9478 -3.72066,-1.1973 -8.66116,-4.6659 -10.69932,-7.5117 -1.69736,-2.37 -1.81789,-6.9503 -2.10067,-79.8286 -0.22035,-56.79032 0.005,-77.98175 0.84749,-79.82859 0.63111,-1.38285 2.28938,-3.46479 3.68506,-4.62652 l 2.5376,-2.11223 -13.39431,-8.41928 -13.3943,-8.41928 -13.3719,8.42254 -13.37191,8.42253 2.49303,2.10898 c 1.37116,1.15994 3.00517,3.07047 3.63113,4.24563 0.82612,1.55096 1.1381,23.25759 1.1381,79.18692 l 0,77.0502 -8.22792,5.1988 c -4.52536,2.8594 -8.67575,5.1989 -9.2231,5.1989 -0.54734,0 -3.81978,-1.7597 -7.27207,-3.9104 l -6.27691,-3.9104 0,-78.3387 c 0,-56.89248 0.31157,-78.9236 1.1381,-80.47532 0.62596,-1.17516 2.25997,-3.08569 3.63113,-4.24563 l 2.49303,-2.10898 -13.37191,-8.42253 -13.3719,-8.42254 -13.3943,8.41928 -13.39431,8.41928 2.49698,2.11223 c 1.37333,1.16173 3.00912,3.07373 3.63508,4.24889 0.82613,1.55096 1.1381,23.25832 1.1381,79.18972 l 0,77.0531 -10.73295,6.7674 c -5.90312,3.7221 -11.40671,6.7674 -12.23021,6.7674 -0.8235,0 -5.44368,-2.4691 -10.26706,-5.4869 l -8.76978,-5.4869 0,-78.3336 c 0,-56.88866 0.31157,-78.9185 1.1381,-80.47022 0.62596,-1.17516 2.25997,-3.08569 3.63113,-4.24563 l 2.49303,-2.10898 -13.37191,-8.42253 -13.3719,-8.42254 -13.3943,8.41928 -13.39431,8.41928 2.49698,2.11223 c 1.37333,1.16173 3.00912,3.07373 3.63508,4.24889 0.8279,1.5543 1.1381,24.77012 1.1381,85.17862 l 0,83.0419 16.50161,10.3581 16.50161,10.3582 22.75637,-14.2939 c 12.51601,-7.8616 23.31528,-14.2938 23.99839,-14.2938 0.91899,0 1.24202,1.9236 1.24202,7.3964 l 0,7.3964 11.00446,6.8957 11.00446,6.8956 22.75352,-14.2921 c 12.51444,-7.8606 23.31243,-14.292 23.99554,-14.292 0.919,0 1.24202,1.9239 1.24202,7.3975 l 0,7.3975 9.97818,6.2484 c 11.90789,7.4569 15.55419,8.6508 25.04158,8.1993 3.58587,-0.1707 10.40981,-1.1369 15.1643,-2.147 z"
       id="path2974" />
    <path
       style="fill:#000000"
       d="m 558.81507,910.3425 c 2.25366,-0.4677 9.03888,-4.2221 20.13383,-11.1406 l 16.73461,-10.4351 -3.43578,-2.2165 c -7.28037,-4.697 -7.00065,-2.9972 -7.32093,-44.4881 l -0.28749,-37.2428 2.28749,0.015 c 1.25812,0.01 4.07486,0.2754 6.25942,0.5938 2.18455,0.3184 4.16118,0.4599 4.3925,0.3145 1.16604,-0.733 -2.62421,-2.1972 -7.44171,-2.8749 l -5.42272,-0.7628 0,-39.0919 c 0,-27.55303 0.33594,-39.72257 1.1381,-41.22855 0.62596,-1.17516 2.26023,-3.08591 3.63172,-4.24611 l 2.4936,-2.10946 -14.88171,-9.42649 c -8.18494,-5.18457 -16.44222,-9.85128 -18.34951,-10.37047 -10.19753,-2.77588 -26.35765,0.49403 -50.58464,10.23551 -2.94332,1.18349 -5.8231,2.1518 -6.39952,2.1518 -0.72285,0 -1.04804,-17.30784 -1.04804,-55.77968 l 0,-55.77967 -19.5,12.24505 -19.5,12.24506 0,45.29508 0,45.29508 -4.53347,1.38445 c -7.59444,2.31921 -12.56131,2.739 -22.77085,1.92451 -8.33283,-0.66477 -9.4818,-0.9228 -12.24496,-2.74987 -1.67711,-1.10894 -3.58961,-3.14985 -4.25,-4.53535 -0.8801,-1.84642 -1.20072,-13.27239 -1.20072,-42.78952 l 0,-40.27043 2.1557,-0.43007 c 2.13721,-0.42637 17.1147,0.063 23.8443,0.7791 3.47713,0.36999 3.48798,0.36393 1.65988,-0.92847 -1.72344,-1.21839 -13.0162,-3.21997 -23.94963,-4.24492 l -3.78976,-0.35527 0.28976,-34.69541 c 0.28087,-33.63159 0.35362,-34.78213 2.37296,-37.52397 2.47713,-3.36346 7.77992,-6.45674 13.08102,-7.63058 2.10967,-0.46714 7.66089,-0.85027 12.33603,-0.8514 7.21361,-0.002 9.46944,0.27136 14.90322,1.80416 6.11601,1.72524 6.6538,1.77122 11.99975,1.02575 5.13904,-0.7166 11.09677,-2.2149 11.09677,-2.7907 0,-0.13148 -2.08656,-0.68595 -4.63681,-1.23215 -2.55024,-0.5462 -10.76274,-3.35884 -18.25,-6.2503 -7.48725,-2.89147 -15.78925,-6.03302 -18.44889,-6.98121 -6.546,-2.33373 -20.49591,-5.23377 -27.60899,-5.73962 -9.95644,-0.70805 -11.66998,-0.0536 -30.28992,11.56798 l -16.73461,10.44488 3.43578,2.21659 c 7.28037,4.69693 7.00065,2.99713 7.32093,44.48803 l 0.28749,37.24286 -2.28749,-0.015 c -1.25812,-0.008 -4.07486,-0.27547 -6.25942,-0.59384 -2.18455,-0.31836 -4.16118,-0.45987 -4.3925,-0.31448 -1.16604,0.73295 2.62421,2.19718 7.44171,2.87485 l 5.42272,0.7628 0,39.0919 c 0,27.55303 -0.33594,39.72257 -1.1381,41.22855 -0.62596,1.17516 -2.26023,3.08591 -3.63172,4.24611 l -2.4936,2.10946 14.88171,9.42649 c 8.18494,5.18457 16.44222,9.85128 18.34951,10.37046 10.19753,2.77589 26.35765,-0.49402 50.58464,-10.2355 2.94332,-1.18346 5.8231,-2.15177 6.39952,-2.15177 0.72285,0 1.04804,17.30783 1.04804,55.77965 l 0,55.7797 19.5,-12.2451 19.5,-12.245 0,-45.2951 0,-45.29508 4.53347,-1.38444 c 7.59444,-2.31922 12.56131,-2.739 22.77085,-1.92451 8.33283,0.66477 9.4818,0.9228 12.24496,2.74986 1.67711,1.10895 3.58961,3.14986 4.25,4.53535 0.8801,1.84643 1.20072,13.27239 1.20072,42.78952 l 0,40.2704 -2.1557,0.4301 c -2.13721,0.4264 -17.1147,-0.063 -23.8443,-0.7791 -3.47713,-0.37 -3.48798,-0.3639 -1.65988,0.9285 1.72344,1.2184 13.0162,3.2199 23.94963,4.2449 l 3.78976,0.3553 -0.28976,34.6954 c -0.28087,33.6316 -0.35362,34.7821 -2.37296,37.5239 -2.47713,3.3635 -7.77992,6.4568 -13.08102,7.6306 -2.10967,0.4672 -7.66089,0.8503 -12.33603,0.8514 -7.21361,0 -9.46944,-0.2713 -14.90322,-1.8041 -6.11601,-1.7253 -6.6538,-1.7712 -11.99975,-1.0258 -5.35092,0.7462 -11.66349,2.376 -10.9397,2.8246 0.18861,0.1169 2.59293,0.7529 5.34293,1.4135 2.75,0.6605 10.4,3.3188 17,5.9074 17.32291,6.7943 23.98587,8.975 33,10.8003 11.94606,2.4191 17.78601,2.8177 23.60078,1.611 z"
       id="path2970" />
    <path
       style="fill:#000000"
       d="m 197.48747,711.70302 c -1.37333,-1.16173 -3.00912,-3.07373 -3.63508,-4.24889 -0.82612,-1.55095 -1.1381,-23.25759 -1.1381,-79.18688 l 0,-77.05021 8.22792,-5.19885 c 4.52536,-2.85937 8.67575,-5.19885 9.2231,-5.19885 0.54734,0 3.81978,1.75969 7.27207,3.91042 l 6.27691,3.91041 0,78.33865 c 0,56.89247 -0.31157,78.92359 -1.1381,80.47531 -0.62596,1.17516 -2.26175,3.08716 -3.63508,4.24889 l -2.49698,2.11224 13.39431,8.41927 13.3943,8.41928 13.3719,-8.42253 13.37191,-8.42254 -2.49303,-2.10897 c -1.37116,-1.15994 -3.00517,-3.07048 -3.63113,-4.24564 -0.82613,-1.55096 -1.1381,-23.25831 -1.1381,-79.18974 l 0,-77.05309 10.73295,-6.76741 c 5.90312,-3.72207 11.40671,-6.7674 12.23021,-6.7674 0.8235,0 5.44368,2.4691 10.26706,5.48689 l 8.76978,5.4869 0,78.3336 c 0,56.88869 -0.31157,78.91854 -1.1381,80.47025 -0.62596,1.17516 -2.26175,3.08716 -3.63508,4.24889 l -2.49698,2.11224 13.39431,8.41927 13.3943,8.41928 13.3719,-8.42253 13.37191,-8.42254 -2.49303,-2.10897 c -1.37116,-1.15994 -3.00517,-3.07048 -3.63113,-4.24564 -0.8279,-1.5543 -1.1381,-24.77011 -1.1381,-85.17858 l 0,-83.04192 -16.50161,-10.35815 -16.50161,-10.35815 -22.75637,14.29386 c -12.51601,7.86163 -23.31528,14.29387 -23.99839,14.29387 -0.91899,0 -1.24202,-1.92369 -1.24202,-7.39643 l 0,-7.39644 -11.00446,-6.89564 -11.00446,-6.89564 -22.75352,14.29207 c -12.51444,7.86064 -23.31243,14.29208 -23.99554,14.29208 -0.919,0 -1.24202,-1.92379 -1.24202,-7.39695 l 0,-7.39694 -10.25,-6.35661 c -15.03824,-9.32606 -20.343,-10.10773 -40.10315,-5.90928 -9.32543,1.98139 -11.84055,2.81337 -31.76004,10.50598 -7.48726,2.89147 -15.699756,5.70411 -18.249996,6.25031 -2.55025,0.5462 -4.63681,1.10067 -4.63681,1.23215 0,0.57689 5.96245,2.07475 11.12409,2.79454 5.303196,0.73954 5.943966,0.69223 11.230666,-0.82913 3.08363,-0.88737 7.63987,-1.80506 10.12499,-2.0393 4.88642,-0.4606 16.44545,0.6366 20.52025,1.9478 3.72066,1.19724 8.66116,4.66584 10.69932,7.51171 1.69736,2.37003 1.81789,6.95033 2.10067,79.82858 0.22035,56.79031 -0.005,77.98174 -0.84749,79.82858 -0.63111,1.38286 -2.28761,3.46333 -3.68111,4.62327 l -2.53364,2.10897 13.3719,8.42254 13.3719,8.42253 13.3943,-8.41928 13.39431,-8.41927 -2.49698,-2.11224 z"
       id="path2964" />
  </g>
</svg>
